<svg width="720" height="720" viewBox="0 0 720 720" fill="none" xmlns="http://www.w3.org/2000/svg">
<path d="M141.115 438.625C134.152 445.588 127.19 452.55 120.86 460.148C119.594 461.413 118.96 461.413 118.327 460.148C108.2 449.388 100.602 437.36 101.237 421.535C102.502 400.013 121.492 383.555 143.647 386.088C158.84 387.353 170.867 394.95 182.892 403.178C199.35 414.573 213.91 427.233 228.467 440.525C230.367 441.79 231 442.425 232.265 439.893C235.43 433.563 239.227 427.865 243.025 422.167C244.29 420.268 244.29 419.002 242.392 417.737C229.732 408.875 217.072 399.38 204.412 390.517C201.247 388.617 198.082 387.352 194.917 384.187C198.715 383.555 199.982 387.352 203.147 387.985C203.147 381.655 203.147 381.655 197.45 381.022C193.652 381.022 189.855 379.757 186.055 378.49C168.329 372.16 152.504 363.93 139.844 348.74C114.524 318.99 117.057 274.679 146.174 248.093C158.202 236.698 173.395 231.003 189.852 228.47C193.017 227.838 196.814 227.205 199.979 227.205C203.144 227.205 203.777 225.94 202.512 223.408C199.347 213.913 197.447 204.418 196.814 194.29C194.915 165.173 200.612 139.219 222.134 118.33C245.554 96.1753 272.774 91.1102 303.158 101.873C305.058 102.505 305.691 103.138 305.058 105.67C302.526 113.265 299.993 121.495 297.463 129.725C296.831 132.258 295.563 132.89 293.666 131.625C285.436 128.46 276.576 127.195 267.713 129.093C250.623 131.625 239.228 142.385 232.898 156.945C225.936 172.77 227.201 188.595 230.998 205.053C231.631 208.218 233.531 206.318 234.163 205.685C244.291 201.255 254.418 197.455 265.181 194.926C287.968 189.861 310.123 189.228 333.545 193.026C344.305 194.926 355.067 196.823 365.827 199.356C362.03 201.888 358.865 203.786 355.7 205.686C341.775 214.548 327.847 224.043 315.187 234.803C313.922 236.068 312.655 236.068 310.757 235.436C306.96 233.536 302.527 231.006 298.73 229.106C296.197 227.841 294.932 227.206 297.465 224.676C298.097 224.043 298.097 223.41 298.73 222.776C282.272 223.408 266.447 225.941 251.255 234.171C262.65 237.336 272.777 239.868 282.905 243.033C295.565 246.831 307.592 252.528 319.62 258.226C321.52 258.858 322.785 258.858 324.05 257.593C351.27 234.173 381.02 215.183 413.303 199.357C417.733 197.457 419.633 194.927 419 189.862C416.468 182.261 416.468 174.031 414.568 167.068C406.973 136.051 374.056 129.088 351.901 146.178C344.306 151.876 338.609 159.471 334.811 168.333C333.546 170.866 332.279 171.498 329.746 170.866C312.656 167.701 294.931 167.701 277.206 170.233C267.711 171.498 258.216 174.031 248.089 177.196C249.354 167.701 253.154 159.471 260.116 153.776C265.814 149.346 272.144 151.243 277.841 152.511C285.436 154.41 292.402 157.575 299.996 160.741C303.161 162.64 305.061 162.006 306.326 158.208C312.656 143.016 321.519 129.723 334.811 119.596C374.056 88.5782 432.927 109.468 444.321 158.208C446.22 165.803 447.485 174.033 448.118 182.263C448.118 184.796 448.751 184.796 451.283 184.163C465.208 180.366 479.136 176.568 493.693 177.201C541.8 177.833 575.35 199.988 595.606 243.666C605.101 264.556 607.634 286.711 605.733 310.131C605.101 318.993 603.834 327.856 601.936 336.083C601.303 338.616 602.569 339.248 604.468 339.881C615.863 343.678 627.256 346.843 639.283 346.843C642.448 346.843 643.081 348.108 643.081 350.641V375.961C643.081 378.493 642.448 379.758 639.283 379.126C624.723 378.493 610.798 375.961 597.506 370.896C594.341 369.631 592.441 369.631 591.176 373.428C588.643 381.023 585.478 387.988 581.681 394.951C580.416 397.483 581.048 398.748 582.313 400.648C591.176 409.511 598.138 419.638 603.203 431.033C608.268 441.793 611.434 453.188 612.066 465.216C613.966 488.636 607.001 509.526 591.811 526.617C579.784 540.542 563.959 548.772 545.601 551.937C538.006 553.202 530.409 553.837 522.814 553.837C519.649 553.837 517.749 554.469 516.484 557.634C512.686 567.762 506.989 576.624 496.861 581.689C482.936 588.652 469.009 586.754 456.349 579.157C443.056 571.562 432.929 560.799 423.434 550.039C418.369 543.709 413.306 538.012 408.241 531.682C406.976 529.782 405.709 529.782 403.176 530.417C375.956 543.077 347.472 552.572 318.354 559.534C315.822 560.167 314.557 560.799 315.822 563.964C319.619 577.257 324.684 589.917 336.077 599.412C353.167 613.972 382.919 613.972 396.212 587.384C400.009 580.422 401.909 572.824 403.807 565.229C408.237 569.027 412.037 572.824 416.467 576.624C420.264 579.789 424.062 582.322 427.862 584.854C429.127 585.487 429.762 586.12 429.127 588.019C422.797 607.009 412.669 622.834 394.944 632.962C365.194 649.419 327.846 641.192 305.691 614.604C295.564 601.944 289.234 587.384 284.801 572.194C284.169 569.029 282.901 568.397 279.736 569.029C270.874 569.662 262.011 570.929 253.152 570.295C250.619 570.295 250.619 571.56 249.987 573.46C243.024 588.02 236.694 603.21 229.732 617.77C229.734 619.033 229.101 619.033 226.569 618.4C219.606 615.235 212.009 611.438 204.414 608.905C200.616 607.64 200.616 605.74 201.881 601.943C206.946 591.183 212.009 579.788 217.706 569.028C218.971 566.495 218.339 565.23 215.806 564.597C198.716 559.533 183.524 552.57 170.231 539.91C146.811 517.755 139.846 486.105 153.141 459.519C157.572 450.656 163.901 443.694 171.499 437.996C174.031 436.097 174.031 435.464 171.499 433.566C163.904 427.869 155.674 422.171 146.811 418.374C144.279 417.109 141.747 416.474 138.581 417.741C133.517 419.006 130.986 423.439 132.884 428.501C134.784 432.297 137.316 435.461 141.114 438.626L141.115 438.625ZM246.193 416.47C250.623 409.508 254.423 402.545 258.853 396.215C260.118 394.315 260.118 392.418 259.485 390.518C251.255 369.628 247.458 348.74 251.255 326.585C251.888 324.052 251.255 323.42 248.723 322.787C231.633 317.722 214.54 315.192 196.818 320.887C187.955 323.42 181.625 319.622 178.46 310.76C175.928 304.43 175.928 298.1 175.295 291.77C175.295 289.237 176.56 289.237 177.828 288.605C187.323 286.072 196.185 285.44 206.313 284.807C229.1 284.175 251.255 289.872 272.145 297.467C321.52 315.192 361.398 346.207 392.415 389.252C401.277 401.28 408.872 413.307 415.835 426.6C416.467 428.499 417.1 430.397 420.265 429.765C425.962 427.865 431.66 425.967 437.355 424.7C439.255 424.067 439.887 422.8 438.62 420.902C434.822 414.572 431.657 408.242 427.86 402.545C425.96 400.012 425.96 397.48 427.227 394.95C436.722 370.895 444.317 346.21 449.382 321.522C451.282 313.927 452.547 306.962 454.447 299.367C472.805 314.559 488.63 331.017 507.619 344.942C510.152 338.612 511.417 332.282 513.317 325.319C513.949 323.419 512.684 322.787 511.417 321.522C506.987 317.724 503.187 313.927 498.757 309.494C487.362 298.099 476.602 286.707 463.942 277.844C459.512 274.679 458.877 271.514 460.144 267.084C465.842 236.699 491.162 226.572 515.215 234.169C535.47 240.499 546.233 255.692 550.03 276.579C551.93 286.707 551.295 296.834 550.03 306.964C549.398 310.129 550.663 312.029 553.195 313.294C558.893 316.459 563.955 319.624 569.653 323.422C572.185 325.322 573.45 324.687 573.45 321.522C576.615 303.797 577.248 285.442 571.551 267.717C563.956 241.132 548.131 222.142 520.911 213.279C508.251 208.849 494.958 208.849 481.666 210.746C470.906 212.012 461.411 215.177 451.28 218.976C448.748 220.242 447.483 221.509 446.85 224.674C445.585 241.131 443.053 256.956 439.888 272.781C434.19 303.167 425.963 332.916 416.468 362.034C414.568 367.099 413.303 371.529 411.403 377.227C401.908 364.567 392.413 352.539 381.653 341.78C380.388 340.514 381.021 339.88 382.286 338.615C385.451 335.45 388.616 332.917 391.781 329.752C393.681 327.852 395.578 327.22 396.211 324.687C398.743 315.825 401.276 306.33 403.806 296.835C404.438 295.569 403.806 294.302 403.173 293.037C397.476 286.075 390.513 280.377 383.551 274.68C382.286 273.414 381.018 273.414 379.753 274.68C376.588 277.845 372.791 280.377 369.626 282.91C367.093 284.809 367.093 285.442 369.626 287.34C376.588 292.405 383.551 297.467 390.516 302.532C386.086 305.697 382.286 308.862 377.856 312.027C374.058 315.192 369.626 318.357 365.828 322.155C363.928 323.42 363.296 323.42 362.031 322.155C318.986 287.972 271.512 265.818 215.808 263.919C213.908 263.919 212.643 263.286 212.01 261.386C212.01 259.486 210.11 258.854 208.845 258.854C201.883 258.854 194.285 260.119 187.955 262.019C151.24 272.779 148.71 309.494 165.168 329.117C170.232 335.447 176.563 339.877 184.158 342.409C191.12 344.942 197.45 348.107 205.68 343.675C212.01 339.877 220.24 339.244 227.835 337.345C229.735 336.712 230.367 336.712 230.367 339.244C227.202 359.499 231.635 378.489 237.965 397.48C239.862 403.81 243.027 410.14 246.193 416.47ZM456.349 475.339C469.641 471.541 482.301 466.477 494.961 462.047C495.594 462.047 496.861 461.414 497.493 462.047C500.026 463.946 503.191 463.946 506.356 464.579C517.116 466.479 528.511 467.744 539.271 467.111C545.601 467.111 545.601 467.111 543.069 460.781C542.436 459.516 541.803 457.616 541.169 456.351C540.536 455.086 540.536 453.819 542.434 453.819C545.599 453.819 549.396 453.186 552.561 452.554C554.461 451.921 555.094 452.554 555.726 455.086C558.891 466.481 558.259 477.874 556.991 489.269C556.359 496.864 555.726 496.864 548.129 497.499C539.266 498.764 531.039 498.764 522.176 498.764C519.644 498.764 518.379 498.764 519.011 501.929C520.277 506.994 520.911 512.689 520.911 518.386C520.911 521.551 522.176 522.184 525.341 522.184C531.039 522.184 537.369 521.551 543.067 520.284C562.689 516.486 579.147 498.129 580.414 477.874C581.679 458.884 575.349 442.427 563.324 427.867C562.059 425.967 560.792 424.702 559.527 427.867C559.527 429.13 557.629 429.13 556.362 429.13C547.499 431.03 538.637 432.295 529.777 432.927C524.079 433.56 518.382 432.927 512.052 432.927C512.684 431.027 513.317 431.027 514.584 429.762C522.814 422.167 530.409 413.937 536.739 405.075C538.004 402.542 538.004 401.277 535.474 400.01C531.044 397.477 526.611 394.312 522.814 391.147C520.281 389.248 519.649 389.882 518.384 392.413C512.054 403.172 504.459 413.303 494.964 422.162C492.431 424.062 493.699 424.695 495.596 425.96C500.026 427.86 503.826 429.758 508.256 432.29C482.936 443.685 457.616 453.18 431.03 459.51C407.61 465.208 384.82 469.005 360.767 469.638C346.207 470.27 332.282 469.005 317.722 467.105C313.925 466.473 312.025 467.105 311.392 470.903C310.127 475.333 308.227 479.765 306.327 484.195C305.062 486.728 306.327 487.993 308.86 487.993C329.115 490.525 349.372 491.158 369.628 490.525C390.518 489.893 410.773 486.095 430.396 481.663C434.193 481.03 436.726 481.663 439.258 484.828C451.918 500.653 468.376 510.148 487.998 515.213C490.531 515.845 491.163 515.213 490.531 512.68C489.898 508.883 488.631 505.085 488.631 501.285C487.998 494.323 484.833 490.525 477.871 488.625C469.641 486.732 462.679 481.669 456.349 475.339ZM322.153 522.179C321.52 522.179 320.253 521.547 319.62 521.547C309.493 520.282 299.998 519.014 289.87 517.117C284.805 515.852 280.375 513.952 274.678 514.584C258.853 515.85 242.395 515.217 227.203 510.154C218.34 507.622 209.478 503.824 203.783 496.229C199.353 489.899 199.985 484.202 205.048 478.504C206.948 476.604 209.478 474.707 212.01 473.439C213.91 472.174 214.543 471.539 212.643 470.274C208.213 466.477 204.413 462.679 200.615 458.879C199.983 458.247 199.35 457.614 198.083 458.247C187.956 461.412 179.093 474.072 178.461 484.832C177.828 500.024 184.791 511.417 196.186 520.279C212.643 532.939 231.633 536.104 251.257 537.369C266.449 538.002 281.007 536.104 295.567 532.304C305.064 529.776 313.926 527.244 322.154 522.179L322.153 522.179ZM337.978 374.057C337.978 372.792 336.712 372.158 336.078 371.525C332.28 368.36 328.483 365.828 324.683 362.03C322.783 360.13 321.518 360.765 319.618 362.663C312.023 370.893 305.693 379.753 299.363 388.615C282.273 412.67 267.08 437.99 253.788 464.575C252.523 467.74 252.523 469.005 255.053 470.273C260.118 473.438 265.181 476.603 270.246 479.768C272.778 481.033 273.411 481.033 274.676 478.502C278.473 469.007 282.271 459.512 286.703 450.65C299.996 424.065 315.821 399.377 335.443 376.589C337.345 375.322 337.978 374.689 337.978 374.057L337.978 374.057ZM469.009 362.662C463.311 381.02 458.249 399.377 449.386 417.1C455.716 413.935 460.781 410.138 465.211 406.34C473.441 399.378 480.404 391.78 486.734 382.921C487.366 381.655 489.266 380.388 487.366 379.123C481.669 373.423 475.339 368.361 469.009 362.663L469.009 362.662ZM562.693 357.598C562.693 356.332 562.693 355.698 562.06 355.065C555.73 351.268 549.4 347.47 542.438 343.67C540.538 342.405 540.538 343.67 539.905 344.935C538.64 350 536.74 354.43 535.475 359.495C534.842 361.395 536.108 361.395 536.74 362.028C540.538 364.56 544.335 367.725 548.135 370.258C555.73 375.323 555.73 375.323 558.895 367.093C560.16 363.928 561.427 360.13 562.693 357.598ZM331.648 435.457C350.005 437.989 367.728 437.989 386.086 435.457C384.186 430.392 381.655 426.594 379.123 422.797C377.223 420.264 376.591 419.632 373.426 421.531C363.931 427.861 353.803 432.926 342.408 434.191C339.245 434.824 335.445 434.824 331.648 435.457ZM282.275 363.295C286.705 357.597 291.137 351.9 295.567 346.205C296.2 344.939 298.1 344.305 295.567 343.04C291.137 340.507 286.705 337.975 282.275 336.077C281.009 335.445 280.375 336.077 279.742 337.342C279.11 345.572 279.742 354.432 282.275 363.295ZM486.101 546.865C473.441 543.7 462.046 538.002 450.021 532.305C453.186 537.369 456.983 540.535 460.148 543.7C463.946 547.497 467.743 550.662 472.176 552.562C478.506 554.462 484.201 552.562 486.101 546.865ZM517.118 283.537C517.118 276.574 515.218 270.877 510.788 265.811C506.358 262.014 500.028 260.747 495.596 263.279C493.696 264.544 493.063 265.179 495.596 267.077C499.393 269.609 502.558 272.774 506.356 275.307C509.521 278.472 512.686 281.637 517.118 283.537L517.118 283.537ZM413.306 234.161C410.141 236.061 408.241 237.326 406.344 238.592C405.711 239.224 404.444 239.224 405.079 240.491C406.978 242.391 408.876 244.922 411.409 244.922C413.308 244.922 412.041 242.389 412.674 240.491C413.306 238.594 412.674 236.694 413.306 234.161ZM352.538 400.641C355.071 399.375 356.968 398.108 358.868 397.476C360.133 396.843 360.133 396.21 359.501 394.943C358.868 393.678 357.601 394.311 356.968 394.943C355.703 396.843 354.436 398.108 352.538 400.641Z" fill="white"/>
<path d="M382.921 158.206C386.086 157.573 387.986 158.839 389.251 161.371C391.784 167.069 394.316 172.766 396.846 178.461C397.479 180.361 397.479 181.626 395.581 182.891C389.883 185.424 384.186 188.589 378.491 191.121C376.591 191.754 375.959 191.754 374.061 190.489C368.363 186.058 362.666 181.626 356.971 177.829C355.071 176.563 355.071 175.296 356.338 173.398C362.666 164.536 371.528 158.841 382.921 158.206Z" fill="white"/>
<path d="M362.032 586.114C355.069 586.114 350.637 582.949 346.839 578.519C345.574 577.254 346.206 576.619 347.472 575.987C358.232 572.822 368.994 569.657 379.122 565.227C379.754 564.594 381.654 563.961 381.654 566.492C381.021 575.354 371.527 584.849 362.664 586.114L362.032 586.114Z" fill="white"/>
<path d="M139.19 390.711H168.572C168.168 401.75 165.946 411.073 161.908 418.679C157.869 426.218 152.114 431.939 144.642 435.843C137.238 439.747 128.286 441.699 117.785 441.699C109.641 441.699 102.405 440.353 96.0774 437.661C89.7502 434.901 84.3653 430.862 79.9227 425.545C75.4802 420.227 72.1146 413.664 69.826 405.856C67.6048 397.981 66.4941 388.927 66.4941 378.696V353.757C66.4941 343.526 67.6721 334.473 70.028 326.597C72.4512 318.722 75.8841 312.125 80.3266 306.808C84.8364 301.423 90.255 297.384 96.5822 294.692C102.977 291.932 110.179 290.552 118.189 290.552C128.892 290.552 137.844 292.571 145.046 296.61C152.249 300.649 157.802 306.538 161.706 314.279C165.677 321.953 168.067 331.343 168.874 342.449H139.291C139.157 335.449 138.382 329.963 136.969 325.991C135.623 321.953 133.469 319.126 130.507 317.51C127.545 315.827 123.439 314.986 118.189 314.986C114.285 314.986 110.92 315.693 108.092 317.106C105.265 318.453 102.943 320.64 101.126 323.669C99.3083 326.698 97.9621 330.67 97.0871 335.583C96.2793 340.497 95.8755 346.488 95.8755 353.555V378.696C95.8755 385.629 96.2457 391.553 96.9861 396.466C97.7265 401.313 98.9045 405.284 100.52 408.38C102.135 411.477 104.323 413.732 107.083 415.145C109.91 416.559 113.477 417.265 117.785 417.265C122.766 417.265 126.771 416.525 129.8 415.044C132.897 413.563 135.185 410.904 136.666 407.068C138.147 403.231 138.988 397.779 139.19 390.711Z" fill="#111111"/>
<path d="M268.529 352.243V376.677H208.252V352.243H268.529ZM216.632 292.672V439.68H187.048V292.672H216.632ZM289.934 292.672V439.68H260.653V292.672H289.934Z" fill="#111111"/>
<path d="M369.092 318.924L337.489 439.68H306.29L352.23 292.672H371.717L369.092 318.924ZM394.03 439.68L362.226 318.924L359.298 292.672H379.087L425.431 439.68H394.03ZM395.141 384.855V409.39H328.806V384.855H395.141Z" fill="#111111"/>
<path d="M540.533 354.767V379.302C540.533 389.668 539.254 398.755 536.696 406.563C534.206 414.304 530.638 420.799 525.994 426.05C521.417 431.232 515.864 435.137 509.334 437.762C502.873 440.387 495.704 441.699 487.829 441.699C479.953 441.699 472.751 440.387 466.222 437.762C459.76 435.137 454.173 431.232 449.461 426.05C444.817 420.799 441.216 414.304 438.658 406.563C436.1 398.755 434.821 389.668 434.821 379.302V354.767C434.821 344.132 436.066 334.843 438.557 326.9C441.047 318.89 444.648 312.226 449.36 306.909C454.072 301.524 459.659 297.485 466.121 294.793C472.583 292.033 479.751 290.653 487.627 290.653C495.502 290.653 502.671 292.033 509.133 294.793C515.594 297.485 521.181 301.524 525.893 306.909C530.605 312.226 534.206 318.89 536.696 326.9C539.254 334.843 540.533 344.132 540.533 354.767ZM511.152 379.302V354.565C511.152 347.565 510.647 341.608 509.637 336.694C508.628 331.713 507.113 327.641 505.094 324.477C503.074 321.313 500.618 318.991 497.723 317.51C494.829 316.029 491.463 315.289 487.627 315.289C483.79 315.289 480.391 316.029 477.429 317.51C474.535 318.991 472.078 321.313 470.058 324.477C468.106 327.641 466.625 331.713 465.616 336.694C464.673 341.608 464.202 347.565 464.202 354.565V379.302C464.202 386.033 464.707 391.788 465.717 396.567C466.726 401.346 468.241 405.25 470.26 408.279C472.28 411.308 474.737 413.563 477.631 415.044C480.593 416.458 483.992 417.164 487.829 417.164C491.598 417.164 494.93 416.458 497.824 415.044C500.786 413.563 503.243 411.308 505.195 408.279C507.147 405.25 508.628 401.346 509.637 396.567C510.647 391.788 511.152 386.033 511.152 379.302Z" fill="#111111"/>
<path d="M624.235 401.01C624.235 398.385 623.999 395.995 623.528 393.841C623.057 391.687 622.047 389.701 620.499 387.884C619.018 386.067 616.83 384.249 613.936 382.432C611.109 380.614 607.407 378.73 602.83 376.778C597.377 374.489 592.094 372.066 586.978 369.508C581.862 366.883 577.251 363.854 573.145 360.421C569.039 356.988 565.775 352.95 563.352 348.305C560.996 343.593 559.818 338.074 559.818 331.747C559.818 325.554 560.928 319.933 563.15 314.885C565.438 309.837 568.669 305.529 572.843 301.961C577.016 298.327 581.896 295.533 587.483 293.581C593.137 291.629 599.43 290.653 606.364 290.653C615.787 290.653 623.932 292.605 630.797 296.509C637.731 300.413 643.082 305.764 646.851 312.563C650.688 319.361 652.606 327.169 652.606 335.987H623.124C623.124 331.814 622.518 328.145 621.307 324.982C620.162 321.751 618.311 319.227 615.753 317.409C613.196 315.592 609.897 314.683 605.859 314.683C602.089 314.683 598.959 315.457 596.469 317.005C594.046 318.486 592.228 320.539 591.017 323.164C589.872 325.722 589.3 328.617 589.3 331.847C589.3 334.271 589.872 336.458 591.017 338.41C592.228 340.295 593.877 342.011 595.964 343.56C598.051 345.04 600.507 346.488 603.335 347.901C606.229 349.315 609.393 350.695 612.825 352.041C619.489 354.666 625.379 357.56 630.495 360.724C635.61 363.82 639.885 367.32 643.317 371.225C646.75 375.061 649.342 379.403 651.092 384.249C652.842 389.096 653.717 394.615 653.717 400.808C653.717 406.933 652.64 412.52 650.486 417.568C648.399 422.549 645.337 426.857 641.298 430.492C637.259 434.06 632.379 436.819 626.658 438.771C621.004 440.723 614.676 441.699 607.676 441.699C600.878 441.699 594.449 440.757 588.391 438.872C582.333 436.92 576.982 433.992 572.338 430.088C567.761 426.117 564.159 421.102 561.534 415.044C558.909 408.919 557.597 401.683 557.597 393.336H587.18C587.18 397.779 587.617 401.582 588.492 404.746C589.367 407.842 590.714 410.332 592.531 412.217C594.348 414.034 596.57 415.414 599.195 416.357C601.887 417.232 604.95 417.669 608.383 417.669C612.287 417.669 615.383 416.929 617.672 415.448C620.028 413.967 621.71 411.981 622.72 409.491C623.73 407 624.235 404.173 624.235 401.01Z" fill="#111111"/>
<path fill-rule="evenodd" clip-rule="evenodd" d="M123.235 374.293H170.631V358.867H123.186L122.876 342.765C122.76 336.704 122.097 333.26 121.549 331.634C120.802 331.51 119.706 331.404 118.19 331.404C116.247 331.404 115.509 331.754 115.435 331.791L115.413 331.803C115.363 331.868 115.293 331.97 115.205 332.116C114.75 332.874 113.926 334.73 113.271 338.355C112.664 342.097 112.294 347.105 112.294 353.555V378.696C112.294 385.095 112.639 390.147 113.219 394.003C113.757 397.514 114.476 399.563 114.99 400.614C115.506 400.722 116.398 400.847 117.786 400.847C119.487 400.847 120.711 400.719 121.54 400.565C121.544 400.565 121.547 400.564 121.55 400.563C122.028 398.983 122.621 395.775 122.779 390.242L123.235 374.293ZM107.083 415.145C104.323 413.732 102.136 411.477 100.52 408.38C98.9049 405.284 97.7269 401.313 96.9865 396.466C96.2461 391.552 95.8759 385.629 95.8759 378.696V353.555C95.8759 346.488 96.2797 340.497 97.0875 335.583C97.9625 330.67 99.3087 326.698 101.126 323.669C102.944 320.64 105.266 318.453 108.093 317.106C110.92 315.693 114.285 314.986 118.19 314.986C123.44 314.986 127.546 315.827 130.507 317.51C133.469 319.126 135.623 321.953 136.969 325.991C138.383 329.963 139.157 335.449 139.292 342.449H168.875C168.441 336.48 167.55 331.008 166.202 326.031C165.042 321.746 163.543 317.829 161.706 314.279C157.802 306.538 152.249 300.649 145.047 296.61C137.844 292.571 128.892 290.552 118.19 290.552C110.179 290.552 102.977 291.932 96.5826 294.692C90.2554 297.384 84.8368 301.423 80.327 306.808C75.8844 312.125 72.4516 318.722 70.0284 326.597C67.6725 334.473 66.4945 343.526 66.4945 353.757V378.696C66.4945 388.927 67.6052 397.981 69.8264 405.856C72.115 413.664 75.4806 420.227 79.9231 425.545C84.3657 430.862 89.7506 434.901 96.0778 437.661C102.405 440.353 109.641 441.699 117.786 441.699C128.286 441.699 137.239 439.747 144.643 435.843C152.114 431.939 157.869 426.218 161.908 418.679C163.761 415.19 165.231 411.34 166.318 407.129C167.602 402.16 168.353 396.687 168.572 390.711H139.191C138.989 397.779 138.147 403.231 136.666 407.068C135.186 410.904 132.897 413.563 129.801 415.044C126.772 416.525 122.767 417.265 117.786 417.265C113.478 417.265 109.91 416.559 107.083 415.145ZM152.273 450.381C141.989 455.797 130.278 458.118 117.786 458.118C107.833 458.118 98.3482 456.47 89.6491 452.768L89.5813 452.739L89.5138 452.71C80.8417 448.927 73.3931 443.336 67.3233 436.071C61.2042 428.747 56.8849 420.075 54.0709 410.474L54.0473 410.394L54.0246 410.313C51.3071 400.678 50.0762 390.075 50.0762 378.696V353.757C50.0762 342.304 51.3905 331.614 54.2987 321.892L54.3172 321.83L54.336 321.769C57.2819 312.195 61.6469 303.559 67.7271 296.281L67.7335 296.274L67.7399 296.266C73.8673 288.95 81.3676 283.33 90.115 279.601C98.839 275.843 108.29 274.134 118.19 274.134C130.893 274.134 142.8 276.527 153.077 282.289C160.068 286.21 165.929 291.378 170.631 297.625V276.254H233.051V335.824H244.235V276.254H306.352V384.438L340.16 276.254H391.127L418.403 362.777V354.767C418.403 342.911 419.784 331.903 422.886 322.004C425.938 312.195 430.551 303.393 437.036 296.061C443.343 288.864 450.948 283.34 459.739 279.665C468.453 275.955 477.828 274.235 487.627 274.235C497.426 274.235 506.801 275.955 515.515 279.665C524.306 283.34 531.911 288.864 538.217 296.061C541.882 300.203 544.948 304.815 547.473 309.813C547.681 309.297 547.897 308.784 548.122 308.273L548.159 308.189L548.197 308.106C551.458 300.912 556.124 294.668 562.116 289.531C567.958 284.457 574.671 280.666 582.068 278.082L582.096 278.071L582.125 278.062C589.753 275.428 597.892 274.235 606.364 274.235C618.07 274.235 629.113 276.672 638.883 282.219C648.366 287.566 655.908 295.061 661.18 304.547C666.558 314.099 669.025 324.735 669.025 335.987V352.405H647.243C650.275 354.825 653.071 357.46 655.597 360.326C660.413 365.72 664.078 371.869 666.535 378.673C669.046 385.627 670.136 393.087 670.136 400.808C670.136 408.872 668.713 416.667 665.609 423.961C662.58 431.172 658.098 437.461 652.282 442.696L652.225 442.747L652.168 442.797C646.325 447.958 639.5 451.734 631.987 454.301C624.352 456.933 616.186 458.118 607.676 458.118C599.342 458.118 591.261 456.959 583.514 454.549L583.435 454.525L583.356 454.499C575.375 451.928 568.125 447.995 561.774 442.656L561.675 442.574L561.578 442.489C555.532 437.244 550.828 430.852 547.379 423.577C544.879 428.414 541.865 432.888 538.292 436.928C532 444.049 524.331 449.423 515.49 452.983C506.835 456.495 497.541 458.118 487.829 458.118C478.104 458.118 468.792 456.491 460.097 452.995L460.07 452.984L460.043 452.973C454.085 450.553 448.649 447.308 443.78 443.276L447.822 456.098H381.377L373.399 425.808H358.091L350.164 456.098H244.235V393.095H233.051V456.098H170.631V435.23C165.688 441.487 159.541 446.579 152.273 450.381ZM216.632 376.677H260.654V439.68H289.934V292.672H260.654V352.243H216.632V292.672H187.049V439.68H216.632V376.677ZM337.489 439.68L345.416 409.39H386.053L394.031 439.68H425.431L379.088 292.672H352.231L306.291 439.68H337.489ZM351.837 384.855H379.591L365.67 331.999L351.837 384.855ZM509.335 437.762C515.864 435.136 521.417 431.232 525.994 426.049C530.639 420.799 534.206 414.304 536.697 406.563C539.255 398.755 540.534 389.668 540.534 379.302V354.767C540.534 344.132 539.255 334.843 536.697 326.9C534.206 318.89 530.605 312.226 525.893 306.909C521.182 301.524 515.595 297.485 509.133 294.793C502.671 292.033 495.502 290.653 487.627 290.653C479.752 290.653 472.583 292.033 466.121 294.793C459.659 297.485 454.072 301.524 449.361 306.909C444.649 312.226 441.048 318.89 438.557 326.9C436.067 334.843 434.821 344.132 434.821 354.767V379.302C434.821 389.668 436.1 398.755 438.658 406.563C441.216 414.304 444.817 420.799 449.462 426.049C454.173 431.232 459.76 435.136 466.222 437.762C472.751 440.387 479.954 441.699 487.829 441.699C495.704 441.699 502.873 440.387 509.335 437.762ZM509.638 336.694C508.628 331.713 507.114 327.641 505.094 324.477C503.075 321.313 500.618 318.991 497.724 317.51C494.829 316.029 491.464 315.289 487.627 315.289C483.79 315.289 480.391 316.029 477.429 317.51C474.535 318.991 472.078 321.313 470.059 324.477C468.107 327.641 466.626 331.713 465.616 336.694C464.674 341.608 464.203 347.565 464.203 354.565V379.302C464.203 386.033 464.708 391.788 465.717 396.567C466.727 401.346 468.241 405.25 470.261 408.279C472.28 411.308 474.737 413.563 477.631 415.044C480.593 416.458 483.992 417.164 487.829 417.164C491.598 417.164 494.93 416.458 497.825 415.044C500.786 413.563 503.243 411.308 505.195 408.279C507.147 405.25 508.628 401.346 509.638 396.567C510.647 391.788 511.152 386.033 511.152 379.302V354.565C511.152 347.565 510.647 341.608 509.638 336.694ZM490.547 400.325C490.688 400.246 490.974 400.038 491.394 399.385C491.954 398.517 492.84 396.647 493.574 393.173C494.278 389.839 494.734 385.287 494.734 379.302V354.565C494.734 348.275 494.273 343.493 493.555 339.998L493.551 339.977L493.547 339.956C492.805 336.298 491.877 334.285 491.255 333.311C490.89 332.74 490.609 332.436 490.459 332.294C490.318 332.161 490.251 332.129 490.245 332.127C490.048 332.026 489.33 331.707 487.627 331.707C486.08 331.707 485.264 331.971 484.872 332.148C484.838 332.17 484.779 332.214 484.694 332.294C484.553 332.427 484.299 332.701 483.969 333.202C483.339 334.26 482.453 336.311 481.724 339.872C481.047 343.445 480.621 348.276 480.621 354.565V379.302C480.621 385.287 481.077 389.839 481.781 393.173C482.498 396.569 483.38 398.36 483.922 399.172C484.396 399.883 484.75 400.194 484.951 400.333C485.441 400.521 486.327 400.746 487.829 400.746C489.403 400.746 490.202 400.48 490.547 400.325ZM556.952 367.591V376.918H567.651C565.919 375.676 564.24 374.376 562.615 373.017C560.59 371.325 558.701 369.515 556.952 367.591ZM603.643 395.389C603.748 397.672 604.019 399.273 604.305 400.324C604.36 400.515 604.412 400.669 604.456 400.789C604.478 400.799 604.502 400.809 604.527 400.82C605.22 401.015 606.281 401.206 607.815 401.244C607.816 401.168 607.817 401.09 607.817 401.01C607.817 399.81 607.738 398.856 607.628 398.114C607.544 398.034 607.422 397.925 607.256 397.787C606.818 397.423 606.156 396.933 605.206 396.336L605.132 396.29L605.058 396.243C604.643 395.976 604.173 395.691 603.643 395.389ZM592.531 412.217C590.714 410.332 589.368 407.842 588.493 404.745C587.618 401.582 587.18 397.779 587.18 393.336H557.597C557.597 399.394 558.288 404.867 559.671 409.755C560.194 411.601 560.815 413.364 561.535 415.044C564.16 421.102 567.761 426.117 572.338 430.088C576.983 433.992 582.334 436.92 588.392 438.872C594.45 440.757 600.878 441.699 607.676 441.699C614.677 441.699 621.004 440.723 626.658 438.771C632.38 436.819 637.26 434.06 641.298 430.492C645.337 426.857 648.4 422.549 650.486 417.568C652.64 412.52 653.717 406.933 653.717 400.808C653.717 394.615 652.842 389.096 651.092 384.249C649.342 379.403 646.751 375.061 643.318 371.225C639.885 367.32 635.611 363.82 630.495 360.724C625.615 357.706 620.031 354.933 613.742 352.405C613.438 352.283 613.133 352.162 612.826 352.041C610.681 351.2 608.641 350.345 606.706 349.478C605.544 348.957 604.421 348.431 603.335 347.901C600.508 346.488 598.051 345.04 595.964 343.56C593.878 342.011 592.229 340.295 591.017 338.41C589.873 336.458 589.301 334.271 589.301 331.847C589.301 328.617 589.873 325.722 591.017 323.164C592.229 320.539 594.046 318.486 596.469 317.005C598.96 315.457 602.09 314.683 605.859 314.683C609.898 314.683 613.196 315.592 615.754 317.409C618.312 319.227 620.163 321.751 621.307 324.982C622.519 328.145 623.124 331.814 623.124 335.987H652.607C652.607 330.058 651.739 324.585 650.004 319.569C649.159 317.125 648.108 314.79 646.852 312.563C643.082 305.764 637.731 300.413 630.798 296.509C623.932 292.605 615.787 290.653 606.364 290.653C599.431 290.653 593.137 291.629 587.483 293.581C581.896 295.533 577.016 298.326 572.843 301.961C568.67 305.529 565.439 309.837 563.15 314.885C560.929 319.933 559.818 325.554 559.818 331.746C559.818 338.074 560.996 343.593 563.352 348.305C565.775 352.95 569.04 356.988 573.146 360.421C577.252 363.854 581.863 366.883 586.978 369.508C592.094 372.066 597.378 374.489 602.83 376.778C602.94 376.824 603.049 376.871 603.158 376.918C603.306 376.981 603.453 377.045 603.599 377.108C607.823 378.943 611.269 380.717 613.936 382.432C616.831 384.249 619.018 386.067 620.499 387.884C622.047 389.701 623.057 391.687 623.528 393.841C623.999 395.995 624.235 398.385 624.235 401.01C624.235 404.173 623.73 407 622.721 409.491C621.711 411.981 620.028 413.967 617.672 415.448C615.384 416.929 612.287 417.669 608.383 417.669C604.95 417.669 601.888 417.232 599.195 416.357C596.57 415.414 594.349 414.034 592.531 412.217Z" fill="white"/>
</svg>
